<svg xmlns="http://www.w3.org/2000/svg" viewBox="0 0 118.08 47"><defs><style>.a{fill:#454557;}.b{fill:#fff;}</style></defs><title>keys_octave</title><rect class="a" width="118" height="47"/><rect class="b" x="0.08" width="15.29" height="47" rx="0.59" ry="0.59"/><rect class="b" x="17.2" width="15.29" height="47" rx="0.59" ry="0.59"/><rect class="b" x="34.32" width="15.29" height="47" rx="0.59" ry="0.59"/><rect class="b" x="51.44" width="15.29" height="47" rx="0.59" ry="0.59"/><rect class="b" x="68.56" width="15.29" height="47" rx="0.59" ry="0.59"/><rect class="b" x="85.68" width="15.29" height="47" rx="0.59" ry="0.59"/><rect class="b" x="102.79" width="15.29" height="47" rx="0.59" ry="0.59"/><rect x="11.61" width="9.78" height="27.53" rx="0.36" ry="0.36"/><rect x="28.47" width="9.78" height="27.53" rx="0.36" ry="0.36"/><rect x="62.74" width="9.78" height="27.53" rx="0.36" ry="0.36"/><rect x="79.87" width="9.78" height="27.53" rx="0.36" ry="0.36"/><rect x="96.03" width="9.78" height="27.53" rx="0.36" ry="0.36"/></svg>