<svg xmlns="http://www.w3.org/2000/svg" viewBox="0 0 176.24 60.46"><defs><style>.a,.b{fill:none;stroke:#fff;}.a{stroke-miterlimit:10;stroke-width:0.46px;}.b{stroke-linecap:round;stroke-linejoin:round;stroke-width:1.66px;}</style></defs><title>sine</title><polyline class="a" points="175.83 60.23 0.83 60.23 0.83 0.23 175.83 0.23"/><line class="a" x1="0.83" y1="45.23" x2="175.83" y2="45.23"/><line class="a" x1="0.83" y1="30.23" x2="175.83" y2="30.23"/><line class="a" x1="0.83" y1="15.23" x2="175.83" y2="15.23"/><line class="a" x1="175.55" y1="0.23" x2="175.55" y2="60.23"/><line class="a" x1="131.87" y1="0.23" x2="131.87" y2="60.23"/><line class="a" x1="88.19" y1="0.23" x2="88.19" y2="60.23"/><line class="a" x1="44.51" y1="0.23" x2="44.51" y2="60.23"/><path class="b" d="M.83,30.23S12.5,15.31,22.91,15.31c13.75,0,29.17,29.84,44.17,29.84S95.83,15.31,110,15.31s29.16,29.84,44.58,29.84c10.83,0,20.83-14.92,20.83-14.92"/></svg>